<svg xmlns="http://www.w3.org/2000/svg" width="800" height="120" viewBox="0 0 800 120">
  <defs>
    <linearGradient id="bg" x1="0%" y1="0%" x2="100%" y2="0%">
      <stop offset="0%" style="stop-color:#0f2b3c"/>
      <stop offset="100%" style="stop-color:#1a5c5e"/>
    </linearGradient>
    <linearGradient id="accent" x1="0%" y1="0%" x2="100%" y2="0%">
      <stop offset="0%" style="stop-color:#3bbbbf"/>
      <stop offset="100%" style="stop-color:#e8917e"/>
    </linearGradient>
  </defs>
  <rect width="800" height="120" rx="12" fill="url(#bg)"/>
  <rect x="0" y="108" width="800" height="4" rx="0" fill="url(#accent)" opacity="0.6"/>
  <!-- Cloud icon -->
  <g transform="translate(40, 35)">
    <path d="M12 4C7.6 4 4 7.2 4 11.2c0 .5.1 1 .2 1.5C1.8 13.5 0 15.8 0 18.5 0 22.1 2.9 25 6.5 25h29c5 0 9-4 9-9 0-4.6-3.5-8.4-8-8.9C35.3 3 31 0 26 0c-4.2 0-7.9 2.3-9.8 5.7C14.8 4.6 13.5 4 12 4z" fill="#3bbbbf" opacity="0.9"/>
    <text x="14" y="18" font-family="system-ui, -apple-system, sans-serif" font-size="16" font-weight="700" fill="#0f2b3c" text-anchor="middle">CS</text>
  </g>
  <!-- Main text -->
  <text x="105" y="48" font-family="system-ui, -apple-system, sans-serif" font-size="22" font-weight="700" fill="#ffffff">
    Need production AI systems?
  </text>
  <text x="105" y="76" font-family="system-ui, -apple-system, sans-serif" font-size="15" fill="#b0cfd0">
    We build AI agents, RAG pipelines &amp; Claude integrations for teams.
  </text>
  <!-- CTA -->
  <g transform="translate(612, 36)">
    <rect width="160" height="42" rx="8" fill="#3bbbbf" opacity="0.15"/>
    <rect width="160" height="42" rx="8" fill="none" stroke="#3bbbbf" stroke-width="1.5" opacity="0.5"/>
    <text x="80" y="27" font-family="system-ui, -apple-system, sans-serif" font-size="14" font-weight="600" fill="#3bbbbf" text-anchor="middle">
      Learn more &#x2192;
    </text>
  </g>
</svg>